# xmcd CD database file
#
# Track frame offsets:
#	150
#	16452
#	28872
#	42190
#	56072
#	67655
#	82995
#	95510
#	104697
#	122685
#	137310
#
# Disc length: 1993 seconds
#
# Revision: 0
# Processed by: cddbd v1.5.2PL0 Copyright (c) Steve Scherf et al.
# Submitted via: CDex 1.70beta2
#
DISCID=8907c70b
DTITLE=Pat Garrett - Dancin' With A Cowboy
DYEAR=1900
DGENRE=Country
TTITLE0=The Sleezy Slide
TTITLE1=Huggie Kissie
TTITLE2=Rockin My Country Heart
TTITLE3=I Will Hold On To You
TTITLE4=Sexy Ole Lady
TTITLE5=Tulsa Time
TTITLE6=Cotton Eyed Joe
TTITLE7=Dancin With A Cowboy
TTITLE8=Howlin Coyote
TTITLE9=Trying To Outrun The Wind
TTITLE10=Old Enough To Know Better
EXTD=
EXTT0=
EXTT1=
EXTT2=
EXTT3=
EXTT4=
EXTT5=
EXTT6=
EXTT7=
EXTT8=
EXTT9=
EXTT10=
PLAYORDER=
